<svg width="104" height="101" viewBox="0 0 104 101" fill="none" xmlns="http://www.w3.org/2000/svg">
<path d="M6.73239 62.7352C-12.8676 22.3352 14.9912 10.0227 30.991 3.52268C43.491 -2.31065 74.0323 -4.8648 95.2323 28.7352C116.432 62.3352 91.7323 89.0685 76.7323 98.2352C61.5657 103.235 26.3324 103.135 6.73239 62.7352Z" fill="#F2EFFF"/>
<path d="M64.4333 46.6667C64.2689 46.9096 64.1715 47.1917 64.1511 47.4843C64.1306 47.777 64.1877 48.0698 64.3167 48.3333C64.7303 49.2988 65.0215 50.3122 65.1833 51.35C65.6123 54.0336 65.2111 56.7842 64.0333 59.2333C63.8903 59.502 63.6764 59.7263 63.4149 59.882C63.1535 60.0378 62.8543 60.1189 62.55 60.1167H41.4667C41.1606 60.1173 40.8603 60.0337 40.5986 59.8749C40.337 59.7162 40.1241 59.4884 39.9833 59.2167C38.9164 57.0524 38.4569 54.6392 38.6536 52.2343C38.8504 49.8294 39.696 47.5229 41.1005 45.5608C42.5049 43.5987 44.4154 42.0545 46.6285 41.0928C48.8415 40.1311 51.274 39.788 53.6667 40.1C54.8773 40.2423 56.0614 40.5566 57.1833 41.0333C57.4468 41.1623 57.7397 41.2194 58.0323 41.1989C58.325 41.1784 58.607 41.0811 58.85 40.9167C59.1031 40.7499 59.306 40.5173 59.4367 40.2438C59.5675 39.9703 59.6212 39.6664 59.592 39.3646C59.5629 39.0629 59.452 38.7749 59.2713 38.5315C59.0907 38.2881 58.847 38.0986 58.5667 37.9833C55.347 36.6028 51.7741 36.2718 48.3557 37.0375C44.9372 37.8032 41.8469 39.6266 39.5237 42.2486C37.2006 44.8707 35.7627 48.1581 35.4144 51.644C35.0661 55.1298 35.825 58.6367 37.5833 61.6667C37.8742 62.1705 38.2918 62.5894 38.7947 62.8818C39.2976 63.1741 39.8683 63.3298 40.45 63.3333H63.5333C64.1207 63.3357 64.6982 63.1828 65.2075 62.8901C65.7168 62.5974 66.1396 62.1754 66.4333 61.6667C67.7206 59.4357 68.4733 56.9368 68.6324 54.366C68.7914 51.7953 68.3525 49.2226 67.35 46.85C67.223 46.5796 67.0257 46.3483 66.7787 46.1803C66.5317 46.0123 66.2441 45.9138 65.9459 45.895C65.6478 45.8763 65.3501 45.938 65.084 46.0738C64.8179 46.2095 64.5931 46.4143 64.4333 46.6667Z" fill="#186680"/>
<path d="M49.6499 50.9834C49.0245 51.6089 48.6731 52.4572 48.6731 53.3417C48.6731 53.7797 48.7594 54.2134 48.927 54.618C49.0946 55.0227 49.3402 55.3903 49.6499 55.7001C49.9596 56.0098 50.3273 56.2554 50.732 56.423C51.1366 56.5906 51.5703 56.6769 52.0083 56.6769C52.8928 56.6769 53.7411 56.3255 54.3666 55.7001L63.7999 41.55L49.6499 50.9834Z" fill="#186680"/>
</svg>
