<svg width="119" height="96" viewBox="0 0 119 96" fill="none" xmlns="http://www.w3.org/2000/svg">
<path d="M6.91518 67.1602C-16.6848 17.9602 25.7485 1.99352 49.9152 0.160188C133.515 -3.43981 127 54.6461 103.5 72.9795C80 91.3129 30.5152 116.36 6.91518 67.1602Z" fill="#EBF7F2"/>
<path d="M77.3334 48L73.2667 43.35L73.8334 37.2L67.8167 35.8333L64.6667 30.5L59.0001 32.9333L53.3334 30.5L50.1834 35.8167L44.1667 37.1667L44.7334 43.3333L40.6667 48L44.7334 52.65L44.1667 58.8167L50.1834 60.1833L53.3334 65.5L59.0001 63.05L64.6667 65.4833L67.8167 60.1667L73.8334 58.8L73.2667 52.65L77.3334 48ZM55.8167 55.8667L49.4834 49.5167L51.9501 47.05L55.8167 50.9333L65.5667 41.15L68.0334 43.6167L55.8167 55.8667Z" fill="#186681"/>
</svg>
