<svg width="64" height="64" viewBox="0 0 64 64" fill="none" xmlns="http://www.w3.org/2000/svg">
<rect width="64" height="64" rx="16" fill="#E2F1DD"/>
<path d="M20.3332 30.3335H13.6665V48.6668H20.3332V30.3335Z" fill="#186681"/>
<path d="M38.6665 17.4168C39.7498 16.1502 41.4332 15.3335 43.1665 15.3335C46.2498 15.3335 48.6665 17.7502 48.6665 20.8335C48.6665 24.6168 43.8165 29.0002 38.6665 33.6668C33.5165 28.9835 28.6665 24.6002 28.6665 20.8335C28.6665 17.7502 31.0832 15.3335 34.1665 15.3335C35.8998 15.3335 37.5832 16.1502 38.6665 17.4168Z" fill="#186681"/>
<path d="M45.3332 40.3335H33.6665L30.1832 39.1168L30.7332 37.5502L33.6665 38.6668H38.3665C39.4498 38.6668 40.3332 37.7835 40.3332 36.7002C40.3332 35.8835 39.8165 35.1502 39.0498 34.8502L26.9498 30.3335H23.6665V45.3668L35.3332 48.6668L48.6832 43.6668C48.6665 41.8335 47.1832 40.3335 45.3332 40.3335Z" fill="#186681"/>
</svg>
