<svg width="100" height="94" viewBox="0 0 100 94" fill="none" xmlns="http://www.w3.org/2000/svg">
<path d="M80.1081 20.1811C30.1081 -30.6189 6.27473 26.3478 0.608062 61.1811C-4.04111 79.581 19.0337 94 33.6081 93.1812C69.9414 90.0145 130.108 70.9811 80.1081 20.1811Z" fill="#E8F0FB"/>
<path d="M59.1346 31.4711C58.8161 31.4771 58.4976 31.5372 58.1731 31.6153C55.7091 32.078 54.1526 34.3917 54.6154 36.8557C55.8474 35.7799 57.5481 34.6922 59.8558 34.6922C61.7007 34.6922 62.9207 35.1429 63.8462 35.6057C63.8462 35.4494 63.8582 35.3292 63.7019 35.173C63.2993 33.0215 61.3642 31.417 59.1346 31.4711ZM40.7692 31.6634C38.6418 31.6093 36.7007 33.1537 36.2981 35.173C36.1418 35.3292 36.1538 35.4494 36.1538 35.6057C37.0793 35.1429 38.4495 34.6922 40.1442 34.6922C42.4519 34.6922 44.1647 35.7679 45.2404 36.9999C45.7031 34.536 44.1466 32.2223 41.6827 31.7595C41.3762 31.6814 41.0757 31.6694 40.7692 31.6634ZM40.1442 36.2307C36.2981 36.2307 35.3726 38.3641 34.7596 40.3653C33.6839 43.7487 30.7692 51.7595 30.7692 51.7595C30.7692 51.7595 30.9255 51.6093 30.9615 51.5672C30.3546 52.7331 30 54.0612 30 55.4614C30 60.1189 33.8041 63.923 38.4615 63.923C43.119 63.923 46.9231 60.1189 46.9231 55.4614C46.9231 51.0985 43.5817 47.4807 39.3269 47.048C44.3029 47.3124 45.9075 49.7223 46.9231 51.6153C46.9231 53.31 48.3053 54.6922 50 54.6922C51.6947 54.6922 53.0769 53.31 53.0769 51.6153C54.0925 49.7223 55.6971 47.3124 60.6731 47.048C56.4183 47.4807 53.0769 51.0985 53.0769 55.4614C53.0769 60.1189 56.881 63.923 61.5385 63.923C66.1959 63.923 70 60.1189 70 55.4614C70 54.0612 69.6454 52.7331 69.0385 51.5672C69.0745 51.6093 69.2308 51.7595 69.2308 51.7595C69.2308 51.7595 66.3161 43.7487 65.2404 40.3653C64.6274 38.5203 63.7019 36.2307 59.8558 36.2307C55.7031 36.2307 54.1647 41.2908 52.9327 40.3653C52.1635 39.5961 51.0757 39.3076 50 39.3076C48.9243 39.3076 47.8365 39.5961 47.0673 40.3653C45.8353 41.2908 44.2969 36.2307 40.1442 36.2307ZM38.4615 50.0768C41.4543 50.0768 43.8462 52.4687 43.8462 55.4614C43.8462 58.4542 41.4543 60.8461 38.4615 60.8461C35.4688 60.8461 33.0769 58.4542 33.0769 55.4614C33.0769 52.4687 35.4688 50.0768 38.4615 50.0768ZM61.5385 50.0768C64.5312 50.0768 66.9231 52.4687 66.9231 55.4614C66.9231 58.4542 64.5312 60.8461 61.5385 60.8461C58.5457 60.8461 56.1538 58.4542 56.1538 55.4614C56.1538 52.4687 58.5457 50.0768 61.5385 50.0768Z" fill="#18607C"/>
</svg>
