<svg width="64" height="64" viewBox="0 0 64 64" fill="none" xmlns="http://www.w3.org/2000/svg">
<rect width="64" height="64" rx="16" fill="#FBF9E8"/>
<path d="M43.8999 33.5667C43.9665 33.0667 43.9999 32.55 43.9999 32C43.9999 31.4667 43.9665 30.9333 43.8832 30.4333L47.2665 27.8C47.5665 27.5667 47.6499 27.1167 47.4665 26.7833L44.2665 21.25C44.0665 20.8833 43.6499 20.7667 43.2832 20.8833L39.2999 22.4833C38.4665 21.85 37.5832 21.3167 36.5999 20.9167L35.9999 16.6833C35.9332 16.2833 35.5999 16 35.1999 16H28.7999C28.3999 16 28.0832 16.2833 28.0165 16.6833L27.4165 20.9167C26.4332 21.3167 25.5332 21.8667 24.7165 22.4833L20.7332 20.8833C20.3665 20.75 19.9499 20.8833 19.7499 21.25L16.5665 26.7833C16.3665 27.1333 16.4332 27.5667 16.7665 27.8L20.1499 30.4333C20.0665 30.9333 19.9999 31.4833 19.9999 32C19.9999 32.5167 20.0332 33.0667 20.1165 33.5667L16.7332 36.2C16.4332 36.4333 16.3499 36.8833 16.5332 37.2167L19.7332 42.75C19.9332 43.1167 20.3499 43.2333 20.7165 43.1167L24.6999 41.5167C25.5332 42.15 26.4165 42.6833 27.3999 43.0833L27.9999 47.3167C28.0832 47.7167 28.3999 48 28.7999 48H35.1999C35.5999 48 35.9332 47.7167 35.9832 47.3167L36.5832 43.0833C37.5665 42.6833 38.4665 42.15 39.2832 41.5167L43.2665 43.1167C43.6332 43.25 44.0499 43.1167 44.2499 42.75L47.4499 37.2167C47.6499 36.85 47.5665 36.4333 47.2499 36.2L43.8999 33.5667ZM31.9999 38C28.6999 38 25.9999 35.3 25.9999 32C25.9999 28.7 28.6999 26 31.9999 26C35.2999 26 37.9999 28.7 37.9999 32C37.9999 35.3 35.2999 38 31.9999 38Z" fill="#186681"/>
</svg>
