<svg width="54" height="54" viewBox="0 0 54 54" fill="none" xmlns="http://www.w3.org/2000/svg">
<circle cx="27" cy="27" r="27" fill="#EBEFF2"/>
<path d="M27 21C27 20.45 26.55 20 26 20H20.82L21.48 16.82L21.5 16.59C21.5 16.28 21.37 16 21.17 15.79L20.38 15L15.44 19.94C15.17 20.21 15 20.59 15 21V27.5C15 28.33 15.67 29 16.5 29H23.25C23.87 29 24.4 28.62 24.63 28.09L26.89 22.8C26.96 22.63 27 22.44 27 22.25V21ZM37.5 25H30.75C30.13 25 29.6 25.38 29.37 25.91L27.11 31.2C27.04 31.37 27 31.56 27 31.75V33C27 33.55 27.45 34 28 34H33.18L32.52 37.18L32.5 37.42C32.5 37.73 32.63 38.01 32.83 38.22L33.62 39L38.56 34.06C38.83 33.79 39 33.41 39 33V26.5C39 25.67 38.33 25 37.5 25Z" fill="#186681"/>
</svg>
