<svg width="22" height="18" viewBox="0 0 22 18" fill="none" xmlns="http://www.w3.org/2000/svg">
<rect opacity="0.01" width="21.551" height="18" fill="#40798C"/>
<path d="M9.97642 17.2501C9.8723 17.25 9.76899 17.2348 9.67111 17.2051C9.28256 17.0863 9.04153 16.7611 9.08744 16.4176L9.77887 11.1001H4.48989C4.15746 11.1006 3.85195 10.9475 3.6958 10.7024C3.53965 10.4573 3.55842 10.1602 3.74459 9.93014L10.8295 1.08014C11.06 0.795186 11.4931 0.677713 11.8801 0.795141C12.2514 0.910273 12.4885 1.21499 12.4638 1.54514L11.7723 6.90014H17.0613C17.3938 6.89972 17.6993 7.05274 17.8554 7.29786C18.0116 7.54298 17.9928 7.8401 17.8066 8.07014L10.7217 16.9201C10.5545 17.1268 10.2751 17.2505 9.97642 17.2501V17.2501Z" fill="#40798C"/>
</svg>
